<svg xmlns="http://www.w3.org/2000/svg" width="31.337" height="31.337" viewBox="0 0 31.337 31.337">
  <path id="_5279111_network_fb_social_media_facebook_facebook_logo_icon" data-name="5279111_network_fb_social media_facebook_facebook logo_icon" d="M15.609,31.337h0Zm.111,0h0Zm-.158,0h0Zm.209,0h0Zm-.255,0h0Zm.306,0h0Zm.051,0h0Zm-.415,0h0Zm.465,0h0Zm-.514,0h0Zm.565,0h0Zm-.611,0h0Zm-.057,0h0Zm.719,0h0Zm-.769,0h0Zm.82,0h0Zm.05,0h0Zm-.916,0h0Zm-.044,0h0Zm1.01,0h0Zm.05,0h0Zm-1.124,0h0Zm-.046,0h0Zm1.22,0h0Zm-1.265,0h0Zm1.316,0h0Zm-1.379,0h0Zm1.429,0h0Zm-1.474,0h0Zm1.524,0h0Zm-1.569,0h0Zm1.619,0h0Zm.05,0h0Zm-1.709,0h0Zm1.759,0h0Zm-1.827,0h0Zm-.044,0h0Zm1.921,0h0Zm-1.963,0h0Zm2.013,0h0Zm.05,0h-.007l.024,0h-.016Zm-2.127,0,.024,0H14.6Zm-.044,0,.023,0h-.023Zm2.221,0h-.013l.023,0Zm-2.265,0,.021,0h-.021Zm2.315,0h-.017l.021,0h0Zm-2.374,0h0Zm2.424,0h0Zm.05,0h-.009l.019,0Zm-2.519,0,.019,0H14.4Zm-.044,0h0Zm2.613,0h0Zm-2.662,0h0Zm2.712,0h0Zm.05,0h0Zm-2.813,0h0Zm-.046,0h0Zm2.909,0h0Zm-3.9-.124a15.669,15.669,0,1,1,4.9,0V20.2h3.651l.695-4.529H18.117V12.729a2.265,2.265,0,0,1,2.553-2.447h1.976V6.427a24.1,24.1,0,0,0-3.507-.306c-3.579,0-5.918,2.169-5.918,6.1v3.452H9.242V20.2H13.22Z" transform="translate(0 0)" fill="#9197ae" fill-rule="evenodd"/>
</svg>
