<svg xmlns="http://www.w3.org/2000/svg" width="31.337" height="31.337" viewBox="0 0 31.337 31.337">
  <path id="_5279123_tweet_twitter_twitter_logo_icon" data-name="5279123_tweet_twitter_twitter logo_icon" d="M15.669,0A15.669,15.669,0,1,1,0,15.669,15.676,15.676,0,0,1,15.669,0Zm-2.76,24A10.652,10.652,0,0,0,23.633,13.278c0-.164,0-.328-.008-.485a7.721,7.721,0,0,0,1.884-1.954,7.649,7.649,0,0,1-2.165.594A3.767,3.767,0,0,0,25,9.346a7.634,7.634,0,0,1-2.392.915,3.771,3.771,0,0,0-6.519,2.58,3.455,3.455,0,0,0,.1.86,10.693,10.693,0,0,1-7.77-3.94,3.767,3.767,0,0,0,1.173,5.026,3.7,3.7,0,0,1-1.7-.469v.047a3.773,3.773,0,0,0,3.025,3.7,3.759,3.759,0,0,1-.993.133,3.6,3.6,0,0,1-.711-.07,3.763,3.763,0,0,0,3.518,2.619,7.577,7.577,0,0,1-4.682,1.61,6.86,6.86,0,0,1-.9-.055A10.5,10.5,0,0,0,12.909,24Z" fill="#9197ae" fill-rule="evenodd"/>
</svg>
